<svg id="Layer_1" data-name="Layer 1" xmlns="http://www.w3.org/2000/svg" viewBox="0 0 1548.68 333.02"><defs><style>.cls-1{fill:#22b573;}.cls-2{fill:#010101;}.cls-3{fill:#424242;}.cls-4{fill:#bdbdbd;}.cls-5{fill:#22b472;}.cls-6{fill:#fdfefd;}.cls-7{fill:#23b573;}</style></defs><path d="M1743,696.86c-.41,2.16-.73,4.35-1.26,6.48-2.68,10.85-10.63,17.88-21.77,19.21a66.46,66.46,0,0,1-7.86.47q-34,.06-68.12,0a35.37,35.37,0,0,1-18.18-5,23.38,23.38,0,0,1-6.51-6q-13.72-17.14-27.31-34.4c-1.51-1.91-2.73-4-4.37-6.53-1,4-2,7.51-2.89,11-3.3,12.93-6.63,25.86-9.84,38.82-.46,1.88-1.17,2.53-3.18,2.51-14.26-.09-28.52-.05-42.79-.05a5,5,0,0,0-1.9,0c-3.57,1.59-5.12-.86-6.88-3.19A280.76,280.76,0,0,1,1493.7,678c-3.17-6.2-6.89-12.12-10.37-18.16l-.94.24v2.35c0,10.59,0,21.18,0,31.77,0,7-1.4,13.63-5.92,19.22-5.66,7-13.51,9.46-22,9.52q-37,.27-74.11,0c-8.73-.07-16.62-2.76-22.44-10-2.42,3.37-6,1.38-9.24,2.17v7.76H1294.4c-.1-1.49-.2-3-.32-4.71-4.53.76-8.88,1.57-13.26,2.19-9,1.27-18.09,3.27-27.17,3.48-20.92.48-35.85-13.29-38-34a66.31,66.31,0,0,1-.37-6.9c0-22.85.13-45.71-.09-68.55-.09-8.65-1.05-17.29-1.59-25.93-.12-1.91-.08-3.83-.27-5.72-1.08-10.88,1.07-21.7.58-32.56-.34-7.54-1.06-15.07-1.42-22.61-.3-6.15-.32-12.32-.46-18.49,0-.23,0-.53.07-.7,2.77-3.92.68-8.29,1.14-12.42.22-2-.2-4.14.5-5.89a22.12,22.12,0,0,1,8.79-10.54,34.4,34.4,0,0,1,17.52-5.64c11.78-.42,23.57-.41,35.35-.56,3.78-.05,3.75,0,3.79-3.79.06-7.72.3-15.44.2-23.16-.06-4.52-.77-9-1-13.54q-.62-13.66-1-27.34a37.16,37.16,0,0,1,.57-9c.37-1.58,2-3.14,3.47-4.13s2.81-.11,3.93,1.23a3.29,3.29,0,0,0,2.28.89c6.85,0,13.69-.17,20.54-.21,4.37,0,8.74,0,13.11.17a3.67,3.67,0,0,1,2.16,1.3c1.64,1.84,3.13,3.82,4.72,5.7,1.83,2.17,3.74,4.27,5.56,6.45a13.08,13.08,0,0,1,2.14,3.13c2.67,6.57,6.79,12.19,11.14,17.7a7.46,7.46,0,0,1,1.5,4.29c.11,13.37.06,26.75.06,40.13v3.11c2.26-.18,4.21-.44,6.16-.48,9.55-.21,19.1-.34,28.65-.54,6.93-.14,13.85-.53,20.77-.46a81,81,0,0,1,14.94,1.2c3.14.63,6,2.82,8.93,4.3.77.38,1.57.71,2.6,1.17-.15-1.72-.38-3.2-.38-4.68,0-2.13,1.59-3.24,3.68-2.89a40.27,40.27,0,0,0,6.8.85c7.24,0,14.49-.14,21.73-.3,1.54,0,2.84.09,3.65,1.62a2.94,2.94,0,0,0,1,1c9.24,6,17.34,13.47,25.39,21,.34.31.72.57,1.22,1,1.86-6.07,3.63-12,5.5-17.89a34.35,34.35,0,0,1,2.12-5,3.15,3.15,0,0,1,3.59-1.73,34.06,34.06,0,0,0,4,.47c6.49.19,13,.15,19.48.55,5.15.32,10.27,1.18,15.41,1.75a2.62,2.62,0,0,1,2.65,2.5,3.34,3.34,0,0,0,5.29,1.92c3.93-3.23,8.64-3.88,13.48-3.84,14.57.12,29.15.12,43.72.58a142.87,142.87,0,0,1,21.56,2.22c12.29,2.31,23.06,8.44,33.78,14.61,12,6.91,24,13.77,36.14,20.42,6.34,3.47,13.26,6,19.34,9.81a101.45,101.45,0,0,1,15.48,12.61c5.15,4.92,6.93,11.62,7,18.52.21,14.73.07,29.46.06,44.19a8.68,8.68,0,0,1-.16,1.12h-47.75c-.85,1.94-.14,2.88,1.4,3.77q15.81,9.15,31.55,18.42c7.6,4.48,12.93,10.72,14.77,19.57.25,1.23.51,2.46.77,3.69ZM1334.52,577.2q0-64.49,0-129c0-2.39-.62-3.2-3.08-3.14-6.45.16-12.91.05-19.36.06-3.61,0-3.62,0-3.62,3.7v90.52c0,5,.12,4.36-4.44,4.31-7.64-.09-15.28-.36-22.92-.47-10.11-.14-20.23-.4-30.19,1.89-7.28,1.68-13.8,4.57-17.83,11.29-2.91,4.87-3.6,10.28-3.59,15.85q0,55.77,0,111.54,0,2.15.12,4.29c.56,10.19,6.93,18.28,16.45,20.81a31.45,31.45,0,0,0,13.48.58q22.11-3.74,44.23-7.44c4.62-.77,4.74-.77,4.63,4,0,2.29.83,2.84,2.93,2.81,6.53-.1,13.07,0,19.6,0,3.52,0,3.53,0,3.53-3.54Zm31.91,49.18q0,31.05,0,62.09c0,3,.17,6,.41,9,.55,6.67,4.52,11,11.21,11q39.32.27,78.63,0c6.14,0,10-3.76,11.08-9.6a34.71,34.71,0,0,0,.56-5.93c.06-9,0-18,.06-27,0-1.86-.53-2.51-2.44-2.48-6.53.1-13.07.11-19.6,0-2.06,0-2.55.74-2.53,2.65.08,8.11,0,16.23.08,24.35,0,2.44-.77,3.13-3.15,3.12-15.53-.09-31.07,0-46.61,0-3.17,0-3.21,0-3.21-3.19q0-29.13,0-58.27c0-3.33,0-3.34,3.48-3.34,19.76,0,39.52-.21,59.27.13,5.4.1,9.46-1.09,12.8-5.37a7.31,7.31,0,0,0,1.92-4.84c-.07-19.27,0-38.53-.06-57.79a48.09,48.09,0,0,0-.52-6.89c-.74-5.09-3.51-8.5-8.69-9.5a41.83,41.83,0,0,0-7.8-.84q-33.46-.09-66.92,0a56.94,56.94,0,0,0-7.38.5c-5.71.73-9.11,4-10,9.61a40.93,40.93,0,0,0-.54,6.64Q1366.4,593.43,1366.43,626.38Zm312.48,82.37h35.86c.55,0,1.11,0,1.67-.07,7.11-.35,11-3.9,12-10.88a28.58,28.58,0,0,0,.13-3.82c0-14.25-.22-28.5.09-42.75.16-7.17-2.88-11.89-8.83-15.36-21.13-12.3-42.19-24.71-63.32-37a4.56,4.56,0,0,1-2.62-4.53q.18-15.75,0-31.52c0-2.44.78-3.15,3.15-3.14,14.66.08,29.32,0,44,.05,3.17,0,3.33.17,3.34,3.42,0,7.4,0,14.8,0,22.21,0,1.65.41,2.46,2.28,2.44,6.45-.09,12.91-.06,19.36,0,1.48,0,2.21-.42,2.2-2-.07-10.19,0-20.38-.17-30.57-.12-6-3.32-9.55-9.24-10.77a32.85,32.85,0,0,0-6.63-.67q-33.11-.08-66.22,0a38.64,38.64,0,0,0-6.17.53c-5.56.91-8.75,3.9-9.72,9.1a33.74,33.74,0,0,0-.57,5.93c-.05,12.81.21,25.64-.11,38.45-.2,7.75,3,12.92,9.56,16.74,21.05,12.26,42,24.72,63,37a4.24,4.24,0,0,1,2.49,4.14q-.12,17.08,0,34.16c0,2.3-.76,3-3,3q-22.23-.13-44.46,0c-2.27,0-3-.64-3-3,.12-8.27,0-16.56.06-24.83,0-1.47-.19-2.42-2-2.4-6.85.07-13.7,0-20.55,0-1.46,0-1.95.57-1.95,2,0,10.19-.14,20.38.08,30.57.17,8.32,3.41,12.22,10.5,13.34a32.16,32.16,0,0,0,5,.23Q1661.94,708.77,1678.91,708.75Zm-129-19.13-.66,0c-.18-.58-.4-1.14-.52-1.72q-10.77-53.67-21.51-107.34c-2.33-11.61-4.7-23.21-7-34.83-.24-1.21-.51-2.07-2-2.07-7.65.05-15.3,0-23,0-1.25,0-1.8.47-1.44,1.75.19.69.36,1.39.54,2.08l22.29,87.36q9.14,35.82,18.25,71.65c.5,2,1.35,2.69,3.42,2.66,7.4-.12,14.82-.14,22.22,0,2.23,0,3-.82,3.52-2.83q7.47-29.73,15.07-59.41,12.81-50.28,25.64-100.54c.68-2.66.61-2.72-2.08-2.73-7.09,0-14.19,0-21.28,0-1.69,0-2.39.61-2.69,2.24-1.1,5.94-2.32,11.85-3.51,17.78q-10.9,54.46-21.83,108.93Q1551.61,681.13,1549.88,689.62Z" transform="translate(-194.32 -391.72)"/><path d="M821.2,722.89V703.41L812.08,702a97.18,97.18,0,0,1-6.15,8c-8.37,9-19.11,12.88-31.08,13-30,.22-59.91.07-89.87.07-.54,0-1.09,0-1.94-.09V720.3q0-143.41-.06-286.83c0-2.61,1.29-3.4,3.29-4.06,12.83-4.26,25.69-8.43,38.46-12.85,12.25-4.24,24.35-8.88,36.6-13.1,7.13-2.46,14.45-4.39,21.65-6.65,1.54-.48,2.88-1.64,4.43-2a22.78,22.78,0,0,1,5.83-.52c5.24.16,10.48.58,15.72.69a18,18,0,0,0,6.12-.82c4.33-1.48,8.74-.15,13.06-.74a7.61,7.61,0,0,0,2.21-.44c2.84-1.29,4.75-.19,4.75,2.94,0,8-.08,15.92-.12,23.88v5.11l3-1.43q24.67-11.7,49.37-23.39c2.08-1,4.27-1.74,6.41-2.6.44-.18,1.06-.22,1.3-.54,2.3-3.08,5.56-1.87,8.53-2,7.86-.3,15.72-.72,23.58-.91,3.32-.08,6.66.45,10,.37,1.74,0,3.45-.82,5.19-1.22,2.91-.67,4.19.42,4.16,3.43q-.13,14.06-.25,28.12c-.07,8.43-.22,16.87-.19,25.3,0,10.1.23,20.21.36,30.31,0,.47.09.93.19,1.9,4.92.1,9.81.24,14.7.29q25.58.26,51.13.47h2.84V431.59a24.41,24.41,0,0,0,2.94-2.1c10.39-10.22,20.83-20.39,31.07-30.76,3.37-3.41,7.4-4.34,11.86-4.65a165.26,165.26,0,0,1,33.13.73,3.06,3.06,0,0,0,2.29-1c1.91-2.35,2.66-2.6,5.17-1.19a2.83,2.83,0,0,0,1.07.44c2.16.16,2.53,1.49,2.36,3.33-.6,6.41-1.49,12.82-1.64,19.25-.35,15.5-.4,31-.46,46.51,0,3.95.41,7.91.64,12.11,2.43-.18,4.62-.33,6.8-.51,13-1.07,25.94-.05,38.85,1.28,4.59.47,9.18,1,13.74,1.67,4,.61,6.8,3.1,9.89,5.65,4,3.28,3.51,7.47,4.38,11.44,1.63,7.51-1.09,14.66-2.26,21.9-3.58,22.12-7.55,44.18-11.14,66.3-3,18.44-5.73,36.91-8.46,55.39-1.77,12-3.3,24.1-5,36.14-.93,6.63-1.4,13.41-3.12,19.84-4.37,16.32-15.62,25.55-32,28.73a59.5,59.5,0,0,1-11.16.94c-28.6.08-57.21,0-85.81,0h-3V707l-4.85-2.55c.07-.09-.07,0-.11.13-3.76,12.68-14.06,18.33-26.81,18.41q-37.87.22-75.77,0c-8.1,0-15.73-2-21.36-8.36-2.28-2.56-3.88-5.74-5.85-8.73-3.49,1-4.08.7-5.63-2.6v19.59Zm-124.14-146V705.4c0,3.34,0,3.35,3.23,3.35q36.45,0,72.91,0a39.35,39.35,0,0,0,7.59-.63c10.29-2,17.62-7.72,20.42-18.08a45.17,45.17,0,0,0,1.23-11.56q.12-59.48,0-119c0-1.59,0-3.18-.11-4.77-.33-6.42-3.35-9.94-9.67-11.14a27.67,27.67,0,0,0-5-.42c-12.07,0-23.9,2.19-35.76,4q-13,2-25.93,4.05c-1.77.28-2.8-.13-2.58-2.17.07-.71,0-1.44,0-2.15V449.21c0-4.06,0-4.06-4.19-4.06H700.62c-3.55,0-3.56,0-3.56,3.49Zm332.63.05V705.21c0,3.53,0,3.54,3.58,3.54H1055c18,0,36,.15,54-.18,8.48-.16,15.78-3.6,20.94-10.69,3.72-5.12,4.81-11,4.8-17.16q0-61.63,0-123.25c0-1.12,0-2.23-.1-3.34-.43-6-3.39-9.43-9.26-10.49-7.32-1.31-14.64-.29-21.87.69-14.66,2-29.26,4.37-43.89,6.6-3.88.59-3.88.62-3.88-3.2q0-49.82,0-99.61c0-2.25-.59-3.07-2.94-3-6.45.14-12.91,0-19.36,0-3.82,0-3.83,0-3.83,3.77Zm-32.2,49.44h.07q0-25.9,0-51.82c0-6.28.05-12.57-.14-18.86s-3.69-10.39-9.75-11.44a36.48,36.48,0,0,0-6.17-.55q-35.73-.06-71.45,0a37.74,37.74,0,0,0-6.18.54c-5.57.91-8.88,4.08-9.76,9.35a37.51,37.51,0,0,0-.52,6.17q0,66.38,0,132.76c0,.63,0,1.27,0,1.91.29,10,4.38,14.12,14.44,14.28,4.78.08,9.56,0,14.34,0,20.79,0,41.58.06,62.37-.1,8.43-.06,12.68-4.39,12.72-12.78C997.56,672.71,997.49,649.55,997.49,626.39ZM860.74,577.23V448.76c0-3.61,0-3.61-3.7-3.61h-18.4c-3.4,0-3.4,0-3.4,3.41V705.49c0,3.25,0,3.26,3.32,3.26H857.2c3.54,0,3.54,0,3.54-3.54Z" transform="translate(-194.32 -391.72)"/><path class="cls-1" d="M1334.52,577.2v128c0,3.53,0,3.54-3.53,3.54-6.53,0-13.07-.06-19.6,0-2.1,0-3-.52-2.93-2.81.11-4.73,0-4.73-4.63-4q-22.11,3.72-44.23,7.44a31.45,31.45,0,0,1-13.48-.58c-9.52-2.53-15.89-10.62-16.45-20.81q-.12-2.15-.12-4.29,0-55.77,0-111.54c0-5.57.68-11,3.59-15.85,4-6.72,10.55-9.61,17.83-11.29,10-2.29,20.08-2,30.19-1.89,7.64.11,15.28.38,22.92.47,4.56.05,4.44.65,4.44-4.31V448.85c0-3.7,0-3.7,3.62-3.7,6.45,0,12.91.1,19.36-.06,2.46-.06,3.08.75,3.08,3.14Q1334.47,512.72,1334.52,577.2Zm-26,48.48q0-29.85,0-59.71c0-1.9-.36-3-2.6-3-10.59.17-21.19,0-31.77.41-11.57.41-18.88,7.87-18.93,19.4q-.2,44.07,0,88.13c0,12,7.89,19.66,19.89,19.28,9.92-.31,19.83-1.37,29.73-2.22,3.66-.31,3.65-.48,3.65-4.07Z" transform="translate(-194.32 -391.72)"/><path class="cls-1" d="M1366.43,626.38q0-33,0-65.91a40.93,40.93,0,0,1,.54-6.64c.93-5.63,4.33-8.88,10-9.61a56.94,56.94,0,0,1,7.38-.5q33.45-.06,66.92,0a41.83,41.83,0,0,1,7.8.84c5.18,1,7.95,4.41,8.69,9.5a48.09,48.09,0,0,1,.52,6.89c0,19.26,0,38.52.06,57.79a7.31,7.31,0,0,1-1.92,4.84c-3.34,4.28-7.4,5.47-12.8,5.37-19.75-.34-39.51-.13-59.27-.13-3.47,0-3.48,0-3.48,3.34q0,29.13,0,58.27c0,3.15,0,3.19,3.21,3.19,15.54,0,31.08,0,46.61,0,2.38,0,3.19-.68,3.15-3.12-.13-8.12,0-16.24-.08-24.35,0-1.91.47-2.68,2.53-2.65,6.53.12,13.07.11,19.6,0,1.91,0,2.46.62,2.44,2.48-.08,9,0,18-.06,27a34.71,34.71,0,0,1-.56,5.93c-1.06,5.84-4.94,9.56-11.08,9.6q-39.32.24-78.63,0c-6.69,0-10.66-4.37-11.21-11-.24-3-.41-6-.41-9Q1366.39,657.42,1366.43,626.38Zm77.43-38.33c0-8.68-.07-17.35.05-26,0-2.34-.79-3-3-2.95q-23.53.1-47.08,0c-2.15,0-2.9.62-2.89,2.84q.11,26,0,52.06c0,2.24.77,2.84,2.91,2.83q23.54-.1,47.08,0c2.26,0,3-.65,3-3C1443.79,605.24,1443.86,596.65,1443.86,588.05Z" transform="translate(-194.32 -391.72)"/><path class="cls-1" d="M1678.91,708.75q-17,0-33.94,0a32.16,32.16,0,0,1-5-.23c-7.09-1.12-10.33-5-10.5-13.34-.22-10.19,0-20.38-.08-30.57,0-1.42.49-2,1.95-2,6.85,0,13.7.06,20.55,0,1.85,0,2,.93,2,2.4,0,8.27.06,16.56-.06,24.83,0,2.32.73,3,3,3q22.23-.13,44.46,0c2.28,0,3.06-.67,3-3q-.13-17.09,0-34.16a4.24,4.24,0,0,0-2.49-4.14c-21-12.33-41.95-24.79-63-37-6.56-3.82-9.76-9-9.56-16.74.32-12.81.06-25.64.11-38.45a33.74,33.74,0,0,1,.57-5.93c1-5.2,4.16-8.19,9.72-9.1a38.64,38.64,0,0,1,6.17-.53q33.11-.06,66.22,0a32.85,32.85,0,0,1,6.63.67c5.92,1.22,9.12,4.75,9.24,10.77.22,10.19.1,20.38.17,30.57,0,1.6-.72,2-2.2,2-6.45,0-12.91-.07-19.36,0-1.87,0-2.29-.79-2.28-2.44,0-7.41,0-14.81,0-22.21,0-3.25-.17-3.42-3.34-3.42-14.66,0-29.32,0-44-.05-2.37,0-3.18.7-3.15,3.14q.18,15.76,0,31.52a4.56,4.56,0,0,0,2.62,4.53c21.13,12.3,42.19,24.71,63.32,37,6,3.47,9,8.19,8.83,15.36-.31,14.25-.08,28.5-.09,42.75a28.58,28.58,0,0,1-.13,3.82c-.93,7-4.85,10.53-12,10.88-.56,0-1.12.07-1.67.07h-35.86Z" transform="translate(-194.32 -391.72)"/><path class="cls-1" d="M1549.88,689.62q1.72-8.49,3.44-17,10.92-54.47,21.83-108.93c1.19-5.93,2.41-11.84,3.51-17.78.3-1.63,1-2.26,2.69-2.24,7.09.07,14.19,0,21.28,0,2.69,0,2.76.07,2.08,2.73Q1591.9,596.7,1579.07,647q-7.56,29.7-15.07,59.41c-.51,2-1.29,2.87-3.52,2.83-7.4-.15-14.82-.13-22.22,0-2.07,0-2.92-.68-3.42-2.66q-9.06-35.85-18.25-71.65l-22.29-87.36c-.18-.69-.35-1.39-.54-2.08-.36-1.28.19-1.75,1.44-1.75,7.65,0,15.3,0,23,0,1.52,0,1.79.86,2,2.07,2.31,11.62,4.68,23.22,7,34.83q10.75,53.67,21.51,107.34c.12.58.34,1.14.52,1.72Z" transform="translate(-194.32 -391.72)"/><path class="cls-1" d="M697.06,576.9V448.64c0-3.49,0-3.49,3.56-3.49h18.65c4.19,0,4.19,0,4.19,4.06V546.9c0,.71.06,1.44,0,2.15-.22,2,.81,2.45,2.58,2.17q13-2.06,25.93-4.05c11.86-1.81,23.69-4,35.76-4a27.67,27.67,0,0,1,5,.42c6.32,1.2,9.34,4.72,9.67,11.14.08,1.59.11,3.18.11,4.77q0,59.47,0,119A45.17,45.17,0,0,1,801.21,690c-2.8,10.36-10.13,16-20.42,18.08a39.35,39.35,0,0,1-7.59.63q-36.45.07-72.91,0c-3.22,0-3.23,0-3.23-3.35Zm26.4,49.71q0,30.09,0,60.17c0,1.86.23,3,2.52,3,10.27-.08,20.55.14,30.82-.09s17.05-5.81,18.89-15.26a38.32,38.32,0,0,0,.6-7.35q.06-49.77,0-99.56c0-.79,0-1.59,0-2.38.05-1.52-.64-2.18-2.17-2.09-2.46.15-4.92.29-7.38.33q-20.07.3-40.12.55c-3.14.05-3.15,0-3.15,3.24Q723.45,596.89,723.46,626.61Z" transform="translate(-194.32 -391.72)"/><path class="cls-1" d="M1029.69,577v-128c0-3.77,0-3.77,3.83-3.77,6.45,0,12.91.09,19.36,0,2.35-.05,2.94.77,2.94,3q-.1,49.8,0,99.61c0,3.82,0,3.79,3.88,3.2,14.63-2.23,29.23-4.6,43.89-6.6,7.23-1,14.55-2,21.87-.69,5.87,1.06,8.83,4.51,9.26,10.49.08,1.11.1,2.22.1,3.34q0,61.62,0,123.25c0,6.19-1.08,12-4.8,17.16-5.16,7.09-12.46,10.53-20.94,10.69-18,.33-36,.15-54,.18h-21.76c-3.57,0-3.58,0-3.58-3.54Zm26.09,49.68q0,30.09,0,60.18c0,2.13.59,3,2.82,3,10-.08,20.07.06,30.11-.07,5.65-.08,10.86-1.57,14.86-6s5.1-9.46,5.11-15q0-51.11,0-102.21c0-.48,0-1,0-1.43.09-1.56-.68-2.15-2.17-2.07-2.38.14-4.77.29-7.15.33q-20.19.3-40.37.55c-3.13.05-3.18.07-3.18,3.24Q1055.76,596.91,1055.78,626.63Z" transform="translate(-194.32 -391.72)"/><path class="cls-1" d="M997.49,626.39c0,23.16.07,46.32,0,69.48,0,8.39-4.29,12.72-12.72,12.78-20.79.16-41.58.08-62.37.1-4.78,0-9.56.06-14.34,0-10.06-.16-14.15-4.23-14.44-14.28,0-.64,0-1.28,0-1.91q0-66.37,0-132.76a37.51,37.51,0,0,1,.52-6.17c.88-5.27,4.19-8.44,9.76-9.35a37.74,37.74,0,0,1,6.18-.54q35.72-.06,71.45,0a36.48,36.48,0,0,1,6.17.55c6.06,1.05,9.55,5.06,9.75,11.44s.13,12.58.14,18.86q0,25.9,0,51.82Zm-78.41-.14q0,30.09,0,60.18c0,3.18.11,3.3,3.14,3.3h47.09c2.94,0,3.08-.15,3.08-3.13V566.23c0-3.07-.11-3.18-3.27-3.18H922.51c-3.39,0-3.43,0-3.43,3.49Q919.07,596.39,919.08,626.25Z" transform="translate(-194.32 -391.72)"/><path class="cls-1" d="M860.74,577.23v128c0,3.53,0,3.54-3.54,3.54H838.56c-3.31,0-3.32,0-3.32-3.26V448.56c0-3.41,0-3.41,3.4-3.41H857c3.7,0,3.7,0,3.7,3.61Z" transform="translate(-194.32 -391.72)"/><path d="M1308.51,625.68V684c0,3.59,0,3.76-3.65,4.07-9.9.85-19.81,1.91-29.73,2.22-12,.38-19.84-7.32-19.89-19.28q-.2-44.06,0-88.13c0-11.53,7.36-19,18.93-19.4,10.58-.37,21.18-.24,31.77-.41,2.24,0,2.6,1.05,2.6,3Q1308.47,595.84,1308.51,625.68Z" transform="translate(-194.32 -391.72)"/><path d="M1443.86,588.05c0,8.6-.07,17.19.05,25.79,0,2.32-.76,3-3,3q-23.55-.12-47.08,0c-2.14,0-2.92-.59-2.91-2.83q.11-26,0-52.06c0-2.22.74-2.85,2.89-2.84q23.55.1,47.08,0c2.25,0,3.07.61,3,2.95C1443.79,570.7,1443.86,579.37,1443.86,588.05Z" transform="translate(-194.32 -391.72)"/><path d="M723.46,626.56l.12-59.45c0-3.21,0-3.2,3.16-3.23q20.06-.23,40.12-.48c2.46,0,4.92-.17,7.38-.31,1.53-.09,2.22.58,2.17,2.09,0,.8,0,1.59,0,2.39q-.1,49.78-.23,99.56a38.47,38.47,0,0,1-.62,7.35c-1.86,9.44-8.61,15-18.92,15.21s-20.55,0-30.82,0c-2.29,0-2.52-1.14-2.52-3Q723.44,656.65,723.46,626.56Z" transform="translate(-194.32 -391.72)"/><path d="M1055.77,626.63q0-29.73,0-59.47c0-3.17,0-3.19,3.18-3.24q20.19-.25,40.37-.55c2.38,0,4.77-.19,7.15-.33,1.49-.08,2.26.51,2.17,2.07,0,.47,0,.95,0,1.43q0,51.11,0,102.21c0,5.54-1.22,10.73-5.11,15s-9.21,5.87-14.86,6c-10,.13-20.08,0-30.11.07-2.23,0-2.83-.83-2.82-3Q1055.83,656.72,1055.77,626.63Z" transform="translate(-194.32 -391.72)"/><path d="M919.08,626.25q0-29.87,0-59.71c0-3.45,0-3.49,3.43-3.49h46.61c3.16,0,3.27.11,3.27,3.18V686.6c0,3-.14,3.13-3.08,3.13H922.22c-3,0-3.14-.12-3.14-3.3Q919.07,656.34,919.08,626.25Z" transform="translate(-194.32 -391.72)"/><path class="cls-2" d="M363.91,394.94l4.55-.06c2.62,1,5.31.24,8,.28,1.58,0,3.28.55,4.79-.46l4.09-.06c.2.63.73.41,1.14.42a138.27,138.27,0,0,1,16.74,1.52A164.26,164.26,0,0,1,495.37,442c27.5,26.57,48.22,57.86,63,93.12,10.32,24.64,13.75,50.11,8.41,76.37-8.84,43.44-33.75,74.24-74.22,92.14-19.26,8.52-40,11.91-60.48,15.87a302.44,302.44,0,0,1-44,4.84l-6.39.06-11.42.15c-6.82,0-13.64-.29-20.43-.89-13.28-1.17-26.57-2.41-39.82-3.84-15.9-1.71-31.7-4-47.12-8.46-15.62-4.49-30.06-11.26-41.93-22.68-13.89-13.35-21.7-29.86-24.9-48.72-.47-2.77-.32-5.66-1.45-8.32l-.28-20.51c.83-.32.41-1.05.45-1.57.5-6.59,1.21-13.14,2.24-19.66,2.57-16.34,6.58-32.36,10.48-48.41,4.94-20.27,11.11-40.12,20.71-58.75,15.89-30.87,38.91-54.63,70.07-70.21,18.49-9.24,38.13-14.46,58.65-16.59C359.25,395.65,361.67,395.92,363.91,394.94ZM381,413.79c-21.77.4-37.42,2.47-52.66,7.18-26.11,8.07-48.06,22.44-65.55,43.53-13.8,16.66-23.11,35.73-29.62,56.21a544.44,544.44,0,0,0-17.06,70.68c-2.75,15.68-3.9,31.49-.87,47.31,3.7,19.31,13.38,34.63,30.45,44.85,12.09,7.23,25.48,10.75,39.16,13.33,15.35,2.89,30.88,4.4,46.41,5.93,17.42,1.73,34.84,3.11,52.38,2.5,8-.28,15.91-.67,23.82-1.54A406.68,406.68,0,0,0,468,692c21.51-5.74,40.5-16.07,55.09-33.15,26.2-30.66,33-65.74,22-104.29-4.31-15-11.5-28.86-19.25-42.36-12.66-22.06-27.92-42.15-46.74-59.29C449.68,426.11,414.85,413.36,381,413.79Z" transform="translate(-194.32 -391.72)"/><path class="cls-3" d="M381.21,394.7c-1.51,1-3.21.48-4.79.46-2.65,0-5.34.7-8-.28Z" transform="translate(-194.32 -391.72)"/><path class="cls-4" d="M381.66,724.74c0-.13,0-.26,0-.39l6.39-.06a.55.55,0,0,1,0,.36Z" transform="translate(-194.32 -391.72)"/><path class="cls-5" d="M381,413.79c33.88-.43,68.71,12.32,98.15,39.12,18.82,17.14,34.08,37.23,46.74,59.29,7.75,13.5,14.94,27.36,19.25,42.36,11,38.55,4.21,73.63-22,104.29C508.53,675.93,489.54,686.26,468,692a406.68,406.68,0,0,1-60.6,11.77c-7.91.87-15.86,1.26-23.82,1.54-17.54.61-35-.77-52.38-2.5-15.53-1.53-31.06-3-46.41-5.93-13.68-2.58-27.07-6.1-39.16-13.33-17.07-10.22-26.75-25.54-30.45-44.85-3-15.82-1.88-31.63.87-47.31a544.44,544.44,0,0,1,17.06-70.68c6.51-20.48,15.82-39.55,29.62-56.21C280.25,443.41,302.2,429,328.31,421,343.55,416.26,359.2,414.19,381,413.79Zm-95.64,104a44.44,44.44,0,0,0,.36,4.77c2.56,14.38,10.57,24.45,24.46,29s26.45,1.26,37-8.93c1.13-1.09,1.58-1,2.55.11a35.33,35.33,0,0,0,23.88,11.72c25.9,2.13,45.52-23.22,37-47.81-8.78-25.28-40-32.48-59.72-13.69-1.31,1.25-1.78,1.14-2.9-.1a36.05,36.05,0,0,0-62.64,24.91Z" transform="translate(-194.32 -391.72)"/><path class="cls-6" d="M285.33,517.77A36.05,36.05,0,0,1,348,492.86c1.12,1.24,1.59,1.35,2.9.1,19.67-18.79,50.94-11.59,59.72,13.69,8.55,24.59-11.07,49.94-37,47.81a35.33,35.33,0,0,1-23.88-11.72c-1-1.06-1.42-1.2-2.55-.11-10.59,10.19-23.08,13.52-37,8.93s-21.9-14.64-24.46-29A44.44,44.44,0,0,1,285.33,517.77Zm108.12.48a17,17,0,1,0-16.66,17.3A17,17,0,0,0,393.45,518.25Zm-55.11-1.13a16.92,16.92,0,1,0-16.61,17.18A16.86,16.86,0,0,0,338.34,517.12Z" transform="translate(-194.32 -391.72)"/><path class="cls-7" d="M393.45,518.25a17,17,0,1,1-33.95.42,17,17,0,1,1,33.95-.42Z" transform="translate(-194.32 -391.72)"/><path class="cls-7" d="M338.34,517.12a16.92,16.92,0,1,1-17.22-16.81A16.84,16.84,0,0,1,338.34,517.12Z" transform="translate(-194.32 -391.72)"/></svg>