<svg xmlns="http://www.w3.org/2000/svg" viewBox="0 0 532.32 167.28"><defs><style>.cls-1{fill:#016837;}.cls-2{fill:#fefefe;}.cls-3{fill:#22b472;}</style></defs><g id="Layer_2" data-name="Layer 2"><g id="Layer_1-2" data-name="Layer 1"><path class="cls-1" d="M422.86,167.15h-.72a10.52,10.52,0,0,1-1-1,133.92,133.92,0,0,1-14.47-23.07,40.86,40.86,0,0,0-5.14-8.18c0,5.85,0,11.57,0,17.28-.05,5-1.51,9.45-6.08,12.26a16.37,16.37,0,0,1-8.73,2.15q-17.87.06-35.74,0a16.13,16.13,0,0,1-9.43-2.6,18.65,18.65,0,0,1-2.66-2.48,1.79,1.79,0,0,1-1.73,1c-.9,0-2.3-.35-2.58.07-.46.66-.24,1.84-.17,2.78s-.27,1.24-1.25,1.24q-12.48-.06-24.95,0c-1,0-1.41-.25-1.21-1.24.23-1.2-.34-1.23-1.31-1.06-3.65.66-7.32,1.21-11,1.86a40.61,40.61,0,0,0-5.47.94h-4.8a1.49,1.49,0,0,0-.39-.21c-9.86-1.12-16.41-8.51-16.62-18.61-.2-9.66-.12-19.33-.05-29a160.51,160.51,0,0,0-.85-19.36c-.31-2.75.12-5.56-.51-8.3,1.39-8.85.16-17.71,0-26.56-.05-2.56-1.1-5.19.44-7.67.07-.12,0-.31,0-.47,0-1-.11-1.92-.13-2.87-.06-2.57-.28-5.06,1.8-7.22a16.71,16.71,0,0,1,5.46-4c3.46-1.49,7.12-1.71,10.8-1.76,4.68-.06,9.35-.07,14-.08.58,0,.95,0,.94-.79-.08-6.54.66-13.09-.33-19.61-.28-1.83.28-3.69,0-5.49a51.85,51.85,0,0,1-.45-8.71,20.37,20.37,0,0,0,.12-3.82c-.15-.86-.13-1.76.76-2s2.08-.79,2.89.22a1.84,1.84,0,0,0,1.51.73c.8,0,1.6.12,2.4.11,4.71-.05,9.41-.32,14.12-.23a1.81,1.81,0,0,1,1.33.69,42.1,42.1,0,0,1,3.71,4.7,3,3,0,0,0,.88.95,4,4,0,0,1,1.66,2,34.91,34.91,0,0,0,5.83,9.14,2.82,2.82,0,0,1,.63,2c0,6.91,0,13.82,0,20.74,0,.45-.25,1.06.71.94a75.77,75.77,0,0,1,10.76-.43c7.18.18,14.35-.67,21.53,0,1.48.14,3,.09,4.23,1a26.45,26.45,0,0,0,3.83,2c-.06-.58-.08-1-.16-1.42-.37-1.94.52-2.75,2.36-2.15a2.2,2.2,0,0,0,.58.1c3,.13,6,.13,9,.2,2.26,0,4.49-.94,6.82,1,3.58,3,7.36,5.75,10.79,8.93.76.7,1.52,1.38,2.36,2.14,1-3.6,2-7,3.19-10.41.63-1.77,1.19-2.07,3-1.92a37.65,37.65,0,0,0,5.1.3,68.83,68.83,0,0,1,14,1c.75.11,1.29.5,1.29,1.32,0,1.05,1,1,1.56,1.4s.68-.21.95-.44a7.55,7.55,0,0,1,2.62-1.4,19,19,0,0,1,6.53-.63c6.51.15,13,.22,19.54.3a51.54,51.54,0,0,1,11.53,1.24c5.81,1.39,11,4.1,16.12,7.13,6.38,3.79,12.61,7.84,19.41,10.87,5.37,2.4,10.48,5.07,14.88,9.17A15,15,0,0,1,532,83.34c.09,7.07,0,14.14,0,21.22,0,.94-.24,1.19-1.19,1.19-7.32,0-14.64,0-22,0-.36,0-.93-.31-1.1.33s.13,1,.7,1.33c1.95,1.09,3.87,2.24,5.79,3.37,3.68,2.17,7.42,4.25,11,6.52a13.62,13.62,0,0,1,6.75,10.6c0,2,0,3.91,0,5.87q0,10.19,0,20.37a12.86,12.86,0,0,1-4.48,9.33c-3,2.46-6.5,3.14-10.2,3.15-11.12,0-22.24,0-33.36,0a30.6,30.6,0,0,1-4.06-.22c-3.59-.51-6.85-1.77-9.25-4.62-5-6-10.15-11.82-14.53-18.29-.6-.89-1.19-1.8-1.85-2.79a4.35,4.35,0,0,0-.23.47c-2.08,8.15-4.18,16.3-6.21,24.46-.23.94-.59,1.18-1.51,1.18-7.32,0-14.64,0-22,0C423.89,166.79,423.29,166.62,422.86,167.15ZM327.35,93.22q0-32.43,0-64.84c0-1.23-.33-1.55-1.54-1.52-3.43.08-6.87,0-10.31,0-1.6,0-1.6,0-1.6,1.65v34.4q0,6.16,0,12.34c0,.69,0,1.26-1,1.23-4.43-.12-8.87-.09-13.29-.33a52.8,52.8,0,0,0-15.11,1.09c-3.82.92-7.09,2.72-8.86,6.5a16.42,16.42,0,0,0-1.38,7.1q0,27.15,0,54.29a31.77,31.77,0,0,0,.25,4.78,11.62,11.62,0,0,0,3.68,7.2c3.19,2.84,7,3.3,11,2.76,7.4-1,14.74-2.34,22.08-3.67,2.58-.47,2.62-.51,2.59,2,0,1,.38,1.27,1.33,1.26,3.48,0,7,0,10.44,0,1.67,0,1.67,0,1.67-1.7Zm15.84,24.66h0c0,11.63,0,23.26,0,34.88,0,4.31,2.39,6.69,6.71,6.72,8.67.05,17.35,0,26,0,4,0,8,0,12,0,3.54-.06,5.66-1.77,6.28-4.92a14.81,14.81,0,0,0,.28-2.74c0-4.67,0-9.35,0-14,0-.91-.32-1.16-1.19-1.15-3.32,0-6.64.06-10,0-1.15,0-1.41.39-1.39,1.45.05,4,0,8.07,0,12.11,0,1.1-.3,1.42-1.41,1.41-7.84,0-15.68,0-23.52,0-1.18,0-1.46-.36-1.45-1.5,0-9.75,0-19.49,0-29.24,0-1.63,0-1.63,1.67-1.63,9.92,0,19.84-.13,29.76.07,2.91.06,5.1-.62,6.77-3l.09-.08a1.61,1.61,0,0,0,.56-1.38c0-10.27,0-20.54,0-30.8,0-5.48-2.31-7.59-7.75-7.59q-18.18,0-36.35,0c-4.87,0-7.18,2.26-7.2,7.1C343.16,95,343.19,106.46,343.19,117.88Zm157,41.63v0c6.16,0,12.32,0,18.47,0,3.77,0,5.78-1.83,6.36-5.51a11.86,11.86,0,0,0,.07-1.79c0-7.35-.07-14.71,0-22.06a7.58,7.58,0,0,0-3.87-7.06c-1.84-1.14-3.72-2.2-5.58-3.29Q502.25,111.9,488.78,104a2,2,0,0,1-1.15-2c.06-5.35.05-10.71,0-16.06,0-1,.26-1.31,1.27-1.3q11.22.06,22.44,0c1,0,1.3.29,1.29,1.29,0,3.83,0,7.67,0,11.51,0,.79.19,1.15,1.07,1.14,3.4,0,6.8,0,10.2,0,.79,0,1-.3,1-1.07,0-5,0-10.07-.06-15.1,0-3.17-1.82-5.12-4.88-5.76a13,13,0,0,0-2.63-.2H484.83c-1.08,0-2.16,0-3.24,0-3.17.15-5.2,1.51-6,4.06a9.61,9.61,0,0,0-.41,3.07q0,10.78,0,21.58a6.41,6.41,0,0,0,2,4.83c2.15,2.1,4.89,3.31,7.42,4.82q13.55,8.06,27.16,16a1.64,1.64,0,0,1,.9,1.64q0,8.75,0,17.5c0,1-.27,1.3-1.28,1.29q-11.22,0-22.44,0c-1,0-1.29-.29-1.28-1.29.05-4.31,0-8.63,0-12.94,0-.71-.11-1.12-1-1.11-3.52,0-7,0-10.56,0-.71,0-1,.23-1,1,0,5.47,0,10.95.06,16.42.06,3.46,1.74,5.24,5.09,6a13.85,13.85,0,0,0,2.87.18C488.85,159.52,494.53,159.51,500.21,159.51Zm-65-10.06H435c-.05-.17-.11-.34-.15-.52l-7.92-39.52q-3.18-15.84-6.32-31.68c-.2-1-.58-1.27-1.57-1.26-3.56.06-7.12,0-10.68,0-1.6,0-1.6,0-1.21,1.53l11.22,44q4.67,18.27,9.3,36.55c.25,1,.68,1.23,1.64,1.21,3.72-.05,7.44-.08,11.16,0,1.3,0,1.77-.4,2.08-1.63q4.94-19.68,10-39.33L463,77.86c.33-1.29.27-1.36-1.06-1.36-3.48,0-7,.07-10.44,0-1.31,0-1.77.37-2,1.64-1,5.45-2.14,10.88-3.22,16.31l-9.75,48.68C436.1,145.21,435.66,147.33,435.23,149.45Z" transform="translate(0)"/><path class="cls-1" d="M127,0h2.64c.46.25.75.74,1.38.76,1.14,0,1.58.72,1.55,1.82,0,2.15-.19,4.28-.09,6.44.13,2.86-.06,5.74-.07,8.62q0,9.52,0,19c0,2.67.07,5.35.11,8,0,.42-.13.88.61.86,1.47,0,2.93.26,4.41.25,9.32-.1,18.63-.15,27.94.17,1.56.06,1.56,0,1.56-1.55V21c0-.53-.17-1.12.72-1.18.28,0,.53-.45.79-.7L184.39,3.42a6.5,6.5,0,0,1,4-1.86c6-.7,12-.32,18.06-.15.65,0,1.19.11,1.64-.6a1.42,1.42,0,0,1,2-.36,2.57,2.57,0,0,0,.86.38c1,.15,1.29.77,1.18,1.72-.2,1.63-.35,3.26-.49,4.89-.45,5-.7,10-.8,14.94-.12,6.19.07,12.37.5,18.55.05.6.26.68.81.64,2.19-.18,4.38-.35,6.58-.41,6.49-.17,12.91.71,19.37,1.17a13.37,13.37,0,0,1,9.17,4.33,1.52,1.52,0,0,1,.38.72,21.52,21.52,0,0,1,.64,3.52c0,.94.71,1.77.49,2.66-.27,1.08-.35,2.17-.54,3.25-1.39,8.3-2.94,16.57-4.32,24.88q-2.55,15.47-4.92,31c-1.32,8.72-2.58,17.45-3.71,26.19-.35,2.67-1.08,5.26-1.2,8a19.81,19.81,0,0,1-4.95,12.8c-4.46,5-10.25,6.93-16.73,7-14.8.08-29.59,0-44.39,0-.81,0-1.11-.17-1.08-1,.06-2.19,0-4.39,0-6.59,0-.35.2-.89-.49-.85s-1.32-.43-1.77-1.16a13.9,13.9,0,0,1-3,5.49c-3,3.14-6.87,4.1-11,4.12-12.4,0-24.8.09-37.19,0-6.12,0-11.24-2-13.7-8.26-.12-.3-.18-.59-.65-.33-1.07.59-1.86.15-2.55-1.13,0,3.07,0,5.82,0,8.57,0,.92-.21,1.2-1.18,1.2q-12.42-.06-24.84,0c-.88,0-1.17-.2-1.15-1.12.06-2.71,0-5.43,0-8.15,0-.66-.16-.92-.87-.82a4.84,4.84,0,0,1-2.81-.43c-.64-.31-.94-.24-1.28.41a15.41,15.41,0,0,1-2.79,3.73c-4.51,4.59-10.16,6.32-16.41,6.34-14.64,0-29.27,0-43.91,0a11.74,11.74,0,0,1-1.18-.1c0-.32,0-.64,0-1V21.19c0-.39,0-.79-.06-1.19a3.94,3.94,0,0,1,1.55-.86c4.85-1.6,9.68-3.26,14.54-4.84,8.23-2.67,16.21-6,24.44-8.71,4.06-1.32,8.39-1.85,12.15-4.07a1.15,1.15,0,0,1,.59-.08,24.74,24.74,0,0,1,3,.14,29.08,29.08,0,0,0,12-.59,3.48,3.48,0,0,1,1.72.08A7.17,7.17,0,0,0,74,.86c1.76-.59,2.59-.21,2.58,1.68,0,4.16,0,8.31,0,12.46,0,.58,0,1.15,0,1.81.31-.14.49-.2.66-.29,9.57-4.75,19.06-9.66,29-13.55.22-.09.53-.14.64-.31.84-1.33,2.19-1.48,3.56-1.55,4-.23,8.06-.4,12.08-.66A17.27,17.27,0,0,0,127,0Zm47,93.12q0,32.41,0,64.85c0,1.2.3,1.55,1.53,1.54q18.24-.06,36.47,0a20,20,0,0,0,3.94-.28c5.25-1,9-3.81,10.59-9.06a21.58,21.58,0,0,0,.73-6.39q.06-27.81,0-55.62c0-2.16,0-4.31-.19-6.46a5.37,5.37,0,0,0-4.43-5.25,12.79,12.79,0,0,0-3.08-.37,115.2,115.2,0,0,0-16,1.75c-4.89.77-9.79,1.49-14.67,2.3-1.17.19-1.62-.11-1.41-1.3a4.7,4.7,0,0,0,0-.84V28.48c0-1.59,0-1.59-1.65-1.59-3.4,0-6.8,0-10.2,0-1.59,0-1.59,0-1.59,1.65ZM7.2,93.21v35.6q0,14.69,0,29.36c0,.78,0,1.37,1.09,1.36,13,0,25.91.05,38.87-.09a12.91,12.91,0,0,0,13.1-13.25c.06-21.06,0-42.11,0-63.17,0-.4,0-.8,0-1.2-.22-3-1.75-4.85-4.65-5.44a14.13,14.13,0,0,0-3-.31,84,84,0,0,0-11.2,1c-6.31.92-12.61,2-18.91,3-1.78.29-1.88.2-1.88-1.64V28.55c0-1.66,0-1.66-1.71-1.66-3.28,0-6.55,0-9.83,0-2.07,0-1.89-.23-1.9,1.83Zm151,24.91c0-11.71,0-23.41,0-35.12,0-3.84-1.8-5.84-5.56-6.42a12.45,12.45,0,0,0-2-.08H121c-2.84,0-5.68-.08-8.52,0s-5.13,1-6.13,3.9a10.22,10.22,0,0,0-.47,3.3q0,9.64,0,19.29,0,24.69,0,49.38c0,4.76,2.22,7.06,7,7.08q19.38.06,38.75,0c4.36,0,6.62-2.28,6.64-6.6C158.22,141.29,158.19,129.71,158.19,118.12ZM76.56,93.18v64.49c0,1.84,0,1.84,1.9,1.84,3.12,0,6.24,0,9.36,0,1.73,0,1.73,0,1.73-1.77V56.1c0-9.27,0-18.54,0-27.8,0-1.06-.23-1.47-1.38-1.44-3.32.08-6.64,0-10,0-1.67,0-1.67,0-1.67,1.69Z" transform="translate(0)"/><path class="cls-2" d="M.26,166.52a11.74,11.74,0,0,0,1.18.1c14.64,0,29.27,0,43.91,0,6.25,0,11.9-1.75,16.41-6.34a15.41,15.41,0,0,0,2.79-3.73c.34-.65.64-.72,1.28-.41a4.84,4.84,0,0,0,2.81.43c.71-.1.87.16.87.82,0,2.72,0,5.44,0,8.15,0,.92.27,1.12,1.15,1.12q12.42-.06,24.84,0c1,0,1.19-.28,1.18-1.2-.06-2.75,0-5.5,0-8.57.69,1.28,1.48,1.72,2.55,1.13.47-.26.53,0,.65.33,2.46,6.23,7.58,8.21,13.7,8.26,12.39.1,24.79.06,37.19,0,4.14,0,8-1,11-4.12a13.9,13.9,0,0,0,3-5.49c.45.73.94,1.22,1.77,1.16s.49.5.49.85c0,2.2.05,4.4,0,6.59,0,.87.27,1,1.08,1,14.8,0,29.59,0,44.39,0,6.48,0,12.27-2,16.73-7a19.81,19.81,0,0,0,4.95-12.8c.12-2.73.85-5.32,1.2-8,1.13-8.74,2.39-17.47,3.71-26.19q2.37-15.5,4.92-31c1.38-8.31,2.93-16.58,4.32-24.88.19-1.08.27-2.17.54-3.25.22-.89-.44-1.72-.49-2.66a21.52,21.52,0,0,0-.64-3.52,1.52,1.52,0,0,0-.38-.72,13.37,13.37,0,0,0-9.17-4.33c-6.46-.46-12.88-1.34-19.37-1.17-2.2.06-4.39.23-6.58.41-.55,0-.76,0-.81-.64-.43-6.18-.62-12.36-.5-18.55.1-5,.35-10,.8-14.94.14-1.63.29-3.26.49-4.89C212.29,1.6,212,1,211,.83a2.57,2.57,0,0,1-.86-.38,1.42,1.42,0,0,0-2,.36c-.45.71-1,.62-1.64.6-6-.17-12-.55-18.06.15a6.5,6.5,0,0,0-4,1.86L168.52,19.09c-.26.25-.51.68-.79.7-.89.06-.72.65-.72,1.18v23.5c0,1.58,0,1.61-1.56,1.55-9.31-.32-18.62-.27-27.94-.17-1.48,0-2.94-.29-4.41-.25-.74,0-.6-.44-.61-.86,0-2.67-.11-5.35-.11-8q0-9.52,0-19c0-2.88.2-5.76.07-8.62-.1-2.16,0-4.29.09-6.44,0-1.1-.41-1.79-1.55-1.82-.63,0-.92-.51-1.38-.76Q330.37,0,531.12,0c1.1,0,1.2.32,1.2,1.26q0,63.29,0,126.56l-.23.07a13.62,13.62,0,0,0-6.75-10.6c-3.61-2.27-7.35-4.35-11-6.52-1.92-1.13-3.84-2.28-5.79-3.37-.57-.32-.87-.69-.7-1.33s.74-.33,1.1-.33c7.32,0,14.64,0,22,0,.95,0,1.19-.25,1.19-1.19,0-7.08,0-14.15,0-21.22A15,15,0,0,0,526.83,72c-4.4-4.1-9.51-6.77-14.88-9.17-6.8-3-13-7.08-19.41-10.87-5.08-3-10.31-5.74-16.12-7.13a51.54,51.54,0,0,0-11.53-1.24c-6.52-.08-13-.15-19.54-.3a19,19,0,0,0-6.53.63,7.55,7.55,0,0,0-2.62,1.4c-.27.23-.48.81-.95.44s-1.55-.35-1.56-1.4c0-.82-.54-1.21-1.29-1.32a68.83,68.83,0,0,0-14-1,37.65,37.65,0,0,1-5.1-.3c-1.81-.15-2.37.15-3,1.92-1.2,3.37-2.18,6.81-3.19,10.41-.84-.76-1.6-1.44-2.36-2.14C401.36,48.71,397.58,46,394,43c-2.33-2-4.56-1-6.82-1-3-.07-6-.07-9-.2a2.2,2.2,0,0,1-.58-.1c-1.84-.6-2.73.21-2.36,2.15.08.41.1.84.16,1.42a26.45,26.45,0,0,1-3.83-2c-1.21-1-2.75-.9-4.23-1-7.18-.67-14.35.18-21.53,0a75.77,75.77,0,0,0-10.76.43c-1,.12-.71-.49-.71-.94,0-6.92,0-13.83,0-20.74a2.82,2.82,0,0,0-.63-2,34.91,34.91,0,0,1-5.83-9.14,4,4,0,0,0-1.66-2,3,3,0,0,1-.88-.95,42.1,42.1,0,0,0-3.71-4.7,1.81,1.81,0,0,0-1.33-.69c-4.71-.09-9.41.18-14.12.23-.8,0-1.6-.07-2.4-.11A1.84,1.84,0,0,1,302.3.86c-.81-1-2-.49-2.89-.22s-.91,1.16-.76,2a20.37,20.37,0,0,1-.12,3.82,51.85,51.85,0,0,0,.45,8.71c.3,1.8-.26,3.66,0,5.49,1,6.52.25,13.07.33,19.61,0,.79-.36.79-.94.79-4.68,0-9.35,0-14,.08-3.68.05-7.34.27-10.8,1.76a16.71,16.71,0,0,0-5.46,4c-2.08,2.16-1.86,4.65-1.8,7.22,0,.95.09,1.91.13,2.87,0,.16.06.35,0,.47-1.54,2.48-.49,5.11-.44,7.67.16,8.85,1.39,17.71,0,26.56.63,2.74.2,5.55.51,8.3a160.51,160.51,0,0,1,.85,19.36c-.07,9.67-.15,19.34.05,29,.21,10.1,6.76,17.49,16.62,18.61a1.49,1.49,0,0,1,.39.21q-141.64,0-283.3,0c-.31,0-1.11.59-1.08-.44Z" transform="translate(0)"/><path class="cls-2" d="M127,0a17.27,17.27,0,0,1-4.42.42c-4,.26-8,.43-12.08.66-1.37.07-2.72.22-3.56,1.55-.11.17-.42.22-.64.31-10,3.89-19.46,8.8-29,13.55-.17.09-.35.15-.66.29,0-.66,0-1.23,0-1.81,0-4.15,0-8.3,0-12.46C76.62.65,75.79.27,74,.86a7.17,7.17,0,0,1-3.82.21A3.48,3.48,0,0,0,68.49,1a29.08,29.08,0,0,1-12,.59,24.74,24.74,0,0,0-3-.14,1.15,1.15,0,0,0-.59.08c-3.76,2.22-8.09,2.75-12.15,4.07-8.23,2.67-16.21,6-24.44,8.71-4.86,1.58-9.69,3.24-14.54,4.84A3.84,3.84,0,0,0,.24,20L0,19.93C0,13.66,0,7.4,0,1.13,0,.26.15,0,1.08,0q31.43,0,62.83,0Z" transform="translate(0)"/><path class="cls-2" d="M289.2,167.15a40.61,40.61,0,0,1,5.47-.94c3.66-.65,7.33-1.2,11-1.86,1-.17,1.54-.14,1.31,1.06-.2,1,.21,1.25,1.21,1.24q12.48-.06,24.95,0c1,0,1.34-.22,1.25-1.24s-.29-2.12.17-2.78c.28-.42,1.68-.1,2.58-.07a1.79,1.79,0,0,0,1.73-1,18.65,18.65,0,0,0,2.66,2.48,16.13,16.13,0,0,0,9.43,2.6q17.88.06,35.74,0a16.37,16.37,0,0,0,8.73-2.15c4.57-2.81,6-7.23,6.08-12.26.06-5.71,0-11.43,0-17.28a40.86,40.86,0,0,1,5.14,8.18,133.92,133.92,0,0,0,14.47,23.07,10.52,10.52,0,0,0,1,1Z" transform="translate(0)"/><path class="cls-2" d="M422.86,167.15c.43-.53,1-.36,1.56-.36,7.32,0,14.64,0,22,0,.92,0,1.28-.24,1.51-1.18,2-8.16,4.13-16.31,6.21-24.46a4.35,4.35,0,0,1,.23-.47c.66,1,1.25,1.9,1.85,2.79,4.38,6.47,9.51,12.33,14.53,18.29,2.4,2.85,5.66,4.11,9.25,4.62a30.6,30.6,0,0,0,4.06.22c11.12,0,22.24,0,33.36,0,3.7,0,7.25-.69,10.2-3.15a12.86,12.86,0,0,0,4.48-9.33l.23.07c0,4,0,8,0,12,0,.82-.16,1-1,1Q477.11,167.13,422.86,167.15Z" transform="translate(0)"/><path class="cls-3" d="M0,19.93.24,20c0,.4,0,.8,0,1.19V165.57c0,.31,0,.63,0,1l-.24.15Z" transform="translate(0)"/><path class="cls-3" d="M532.29,154.2l-.23-.07q0-10.19,0-20.37c0-2,0-3.92,0-5.87l.23-.07Z" transform="translate(0)"/><path class="cls-3" d="M327.35,93.22v64.59c0,1.7,0,1.7-1.67,1.7-3.48,0-7,0-10.44,0-.95,0-1.35-.22-1.33-1.26,0-2.55,0-2.51-2.59-2-7.34,1.33-14.68,2.66-22.08,3.67-4,.54-7.81.08-11-2.76a11.62,11.62,0,0,1-3.68-7.2,31.77,31.77,0,0,1-.25-4.78q0-27.14,0-54.29a16.42,16.42,0,0,1,1.38-7.1c1.77-3.78,5-5.58,8.86-6.5a52.8,52.8,0,0,1,15.11-1.09c4.42.24,8.86.21,13.29.33,1,0,1-.54,1-1.23q0-6.18,0-12.34V28.54c0-1.65,0-1.65,1.6-1.65,3.44,0,6.88.05,10.31,0,1.21,0,1.54.29,1.54,1.52Q327.32,60.8,327.35,93.22Zm-13.42,24.4q0-14.85,0-29.71c0-.76.06-1.4-1.07-1.38-5.52,0-11,0-16.55.06A8.75,8.75,0,0,0,288,93.33a16.08,16.08,0,0,0-.46,3.91q0,20.25,0,40.5a36.66,36.66,0,0,0,.18,4.06,8.81,8.81,0,0,0,8.7,8.11,69.21,69.21,0,0,0,7.06-.29c3-.2,6-.52,9.06-.75,1.08-.09,1.43-.51,1.42-1.65C313.91,137.36,313.93,127.49,313.93,117.62Z" transform="translate(0)"/><path class="cls-3" d="M343.19,117.88c0-11.42,0-22.85,0-34.28,0-4.84,2.33-7.09,7.2-7.1q18.18,0,36.35,0c5.44,0,7.71,2.11,7.75,7.59.09,10.26,0,20.53,0,30.8a1.61,1.61,0,0,1-.56,1.38l-.09.08c-1.67,2.34-3.86,3-6.77,3-9.92-.2-19.84-.08-29.76-.07-1.67,0-1.67,0-1.67,1.63,0,9.75,0,19.49,0,29.24,0,1.14.27,1.5,1.45,1.5,7.84-.06,15.68-.05,23.52,0,1.11,0,1.43-.31,1.41-1.41-.06-4,0-8.07,0-12.11,0-1.06.24-1.48,1.39-1.45,3.32.07,6.64.05,10,0,.87,0,1.19.24,1.19,1.15,0,4.67,0,9.35,0,14a14.81,14.81,0,0,1-.28,2.74c-.62,3.15-2.74,4.86-6.28,4.92-4,.08-8,0-12,0-8.68,0-17.36,0-26,0-4.32,0-6.7-2.41-6.71-6.72,0-11.62,0-23.25,0-34.88Zm38.68-19.19c0-4.31,0-8.63,0-12.94,0-1.07-.32-1.35-1.36-1.34q-11.76.06-23.52,0c-1.07,0-1.35.31-1.34,1.36q.06,12.94,0,25.89c0,1.06.3,1.36,1.35,1.35q11.76-.06,23.52,0c1.06,0,1.36-.31,1.35-1.36C381.84,107.32,381.87,103,381.87,98.69Z" transform="translate(0)"/><path class="cls-3" d="M500.21,159.51c-5.68,0-11.36,0-17,0a13.85,13.85,0,0,1-2.87-.18c-3.35-.71-5-2.49-5.09-6-.11-5.47,0-10.95-.06-16.42,0-.74.28-1,1-1,3.52,0,7,0,10.56,0,.86,0,1,.4,1,1.11,0,4.31,0,8.63,0,12.94,0,1,.28,1.3,1.28,1.29q11.22,0,22.44,0c1,0,1.28-.31,1.28-1.29q-.06-8.76,0-17.5a1.64,1.64,0,0,0-.9-1.64q-13.61-8-27.16-16c-2.53-1.51-5.27-2.72-7.42-4.82a6.41,6.41,0,0,1-2-4.83q0-10.8,0-21.58a9.61,9.61,0,0,1,.41-3.07c.82-2.55,2.85-3.91,6-4.06,1.08,0,2.16,0,3.24,0h32.51a13,13,0,0,1,2.63.2c3.06.64,4.84,2.59,4.88,5.76.08,5,0,10.07.06,15.1,0,.77-.25,1.07-1,1.07-3.4,0-6.8,0-10.2,0-.88,0-1.07-.35-1.07-1.14,0-3.84,0-7.68,0-11.51,0-1-.29-1.3-1.29-1.29q-11.22.06-22.44,0c-1,0-1.28.32-1.27,1.3,0,5.35.05,10.71,0,16.06a2,2,0,0,0,1.15,2q13.47,7.83,26.92,15.72c1.86,1.09,3.74,2.15,5.58,3.29a7.58,7.58,0,0,1,3.87,7.06c-.11,7.35,0,14.71,0,22.06A11.86,11.86,0,0,1,525,154c-.58,3.68-2.59,5.48-6.36,5.51-6.15.06-12.31,0-18.47,0Z" transform="translate(0)"/><path class="cls-3" d="M435.23,149.45c.43-2.12.87-4.24,1.3-6.36l9.75-48.68c1.08-5.43,2.2-10.86,3.22-16.31.23-1.27.69-1.68,2-1.64,3.48.11,7,0,10.44,0,1.33,0,1.39.07,1.06,1.36l-10.44,41q-5,19.66-10,39.33c-.31,1.23-.78,1.66-2.08,1.63-3.72-.1-7.44-.07-11.16,0-1,0-1.39-.24-1.64-1.21q-4.6-18.28-9.3-36.55L407.16,78c-.39-1.53-.39-1.53,1.21-1.53,3.56,0,7.12,0,10.68,0,1,0,1.37.27,1.57,1.26q3.12,15.84,6.32,31.68l7.92,39.52c0,.18.1.35.15.52Z" transform="translate(0)"/><path class="cls-3" d="M174,93.15V28.54c0-1.65,0-1.65,1.59-1.65,3.4,0,6.8,0,10.2,0,1.64,0,1.65,0,1.65,1.59V78a4.7,4.7,0,0,1,0,.84c-.21,1.19.24,1.49,1.41,1.3,4.88-.81,9.78-1.53,14.67-2.3a115.2,115.2,0,0,1,16-1.75,12.79,12.79,0,0,1,3.08.37,5.37,5.37,0,0,1,4.43,5.25c.19,2.15.19,4.3.19,6.46q0,27.81,0,55.62a21.58,21.58,0,0,1-.73,6.39c-1.61,5.25-5.34,8.05-10.59,9.06a20,20,0,0,1-3.94.28q-18.22,0-36.47,0c-1.23,0-1.53-.34-1.53-1.54Q174,125.57,174,93.15Zm13.44,25q0,15.11,0,30.21c0,.68-.13,1.35,1,1.34,5.44,0,10.88.05,16.32-.07a8.71,8.71,0,0,0,6.24-2.66,9.86,9.86,0,0,0,2.66-7.22q0-25.29,0-50.59c0-2.63,0-2.63-2.64-2.58h-.12c-7.35.09-14.71.22-22.06.26-1.16,0-1.38.41-1.37,1.45C187.46,98.21,187.45,108.16,187.45,118.11Z" transform="translate(0)"/><path class="cls-3" d="M7.2,93.21V28.72c0-2.06-.17-1.83,1.9-1.83,3.28,0,6.55,0,9.83,0,1.71,0,1.71,0,1.71,1.66V78.41c0,1.84.1,1.93,1.88,1.64,6.3-1,12.6-2.06,18.91-3a84,84,0,0,1,11.2-1,14.13,14.13,0,0,1,3,.31c2.9.59,4.43,2.41,4.65,5.44,0,.4,0,.8,0,1.2,0,21.06,0,42.11,0,63.17a12.91,12.91,0,0,1-13.1,13.25c-13,.14-25.91.05-38.87.09-1.11,0-1.09-.58-1.09-1.36q0-14.68,0-29.36Zm13.44,25c0,10,0,20,0,30.08,0,1.06.3,1.36,1.35,1.35,5-.06,10.08,0,15.12,0A10.09,10.09,0,0,0,42.78,148c3-2,4-5,4-8.37q0-25.33,0-50.69c0-2.52,0-2.52-2.54-2.44H44l-21.81.29c-1.58,0-1.59,0-1.59,1.56Z" transform="translate(0)"/><path class="cls-3" d="M158.19,118.12c0,11.59,0,23.17,0,34.76,0,4.32-2.28,6.58-6.64,6.6q-19.38.06-38.75,0c-4.73,0-7-2.32-7-7.08q0-24.69,0-49.38,0-9.64,0-19.29a10.22,10.22,0,0,1,.47-3.3c1-2.94,3.39-3.78,6.13-3.9s5.68,0,8.52,0h29.63a12.45,12.45,0,0,1,2,.08c3.76.58,5.55,2.58,5.56,6.42C158.21,94.71,158.19,106.41,158.19,118.12Zm-39.36,0c0,10.06,0,20.13,0,30.2,0,1.07.3,1.35,1.35,1.35q11.82-.07,23.64,0c1.18,0,1.45-.36,1.45-1.49q0-30.09,0-60.18c0-1.15-.32-1.49-1.48-1.48q-11.75.08-23.51,0c-1.2,0-1.46.39-1.45,1.51C118.85,98.06,118.83,108.09,118.83,118.12Z" transform="translate(0)"/><path class="cls-3" d="M76.56,93.18V28.58c0-1.69,0-1.69,1.67-1.69,3.32,0,6.64.05,10,0,1.15,0,1.39.38,1.38,1.44,0,9.26,0,18.53,0,27.8V157.74c0,1.77,0,1.77-1.73,1.77-3.12,0-6.24,0-9.36,0-1.9,0-1.9,0-1.9-1.84Z" transform="translate(0)"/><path class="cls-1" d="M313.93,117.62c0,9.87,0,19.74,0,29.6,0,1.14-.34,1.56-1.42,1.65-3,.23-6,.55-9.06.75a69.21,69.21,0,0,1-7.06.29,8.81,8.81,0,0,1-8.7-8.11,36.66,36.66,0,0,1-.18-4.06q0-20.25,0-40.5a16.08,16.08,0,0,1,.46-3.91,8.75,8.75,0,0,1,8.32-6.74c5.51-.08,11,0,16.55-.06,1.13,0,1.07.62,1.07,1.38Q313.93,102.76,313.93,117.62Z" transform="translate(0)"/><path class="cls-1" d="M381.87,98.69c0,4.32,0,8.63,0,13,0,1-.29,1.37-1.35,1.36q-11.76-.06-23.52,0c-1,0-1.36-.29-1.35-1.35q.06-12.95,0-25.89c0-1.05.27-1.36,1.34-1.36q11.76.07,23.52,0c1,0,1.38.27,1.36,1.34C381.84,90.06,381.87,94.38,381.87,98.69Z" transform="translate(0)"/><path class="cls-1" d="M187.45,118.11c0-10,0-19.9,0-29.85,0-1,.21-1.44,1.37-1.45,7.35,0,14.71-.17,22.06-.26H211c2.64-.05,2.64-.05,2.64,2.58q0,25.3,0,50.59a9.86,9.86,0,0,1-2.66,7.22,8.71,8.71,0,0,1-6.24,2.66c-5.44.12-10.88,0-16.32.07-1.1,0-1-.66-1-1.34Q187.46,133.22,187.45,118.11Z" transform="translate(0)"/><path class="cls-1" d="M20.64,118.24V88.4c0-1.54,0-1.54,1.59-1.56L44,86.55h.24c2.54-.08,2.54-.08,2.54,2.44q0,25.35,0,50.69c0,3.4-1,6.38-4,8.37a10.09,10.09,0,0,1-5.69,1.59c-5,0-10.08,0-15.12,0-1,0-1.35-.29-1.35-1.35C20.66,138.29,20.64,128.27,20.64,118.24Z" transform="translate(0)"/><path class="cls-1" d="M118.83,118.12c0-10,0-20.06,0-30.09,0-1.12.25-1.52,1.45-1.51q11.76.08,23.51,0c1.16,0,1.48.33,1.48,1.48q0,30.09,0,60.18c0,1.13-.27,1.5-1.45,1.49q-11.82-.07-23.64,0c-1,0-1.36-.28-1.35-1.35C118.85,138.25,118.83,128.18,118.83,118.12Z" transform="translate(0)"/></g></g></svg>